<svg xmlns="http://www.w3.org/2000/svg" viewBox="0 0 118.72 99.54"><defs><style>.cls-1{font-size:21.45px;font-family:Roboto-Bold, Roboto;font-weight:700;}.cls-1,.cls-3{fill:#bababa;}.cls-2{letter-spacing:-0.01em;}</style></defs><title>visitor__home</title><g id="Layer_2" data-name="Layer 2"><g id="レイヤー_1" data-name="レイヤー 1"><text class="cls-1" transform="translate(0 18.35)"><tspan class="cls-2">Z</tspan><tspan x="12.78" y="0">oom</tspan></text><path class="cls-3" d="M41.22,52.07v0h4.17V65.57l4.81-4.3V50.67h0V50h0v0H47L56.52,30.6l5.62-11.38L78.08,50.08v7.69l4.29.75.74.13h0v-8h25.75V63h0v0a9.58,9.58,0,0,1,4.55-1.15l.22,0h0V50.67h3.23l1.46,0v0h0L99.52,14.13H96V6.33H83.21v7.8h-24L41.64,50l-.35.72-.07.14v1.26Zm45.84-28.4V10.18h5.13V23.67Z"/><polygon class="cls-3" points="66.72 49.49 66.72 39.28 58.86 39.28 58.86 49.4 58.86 49.46 58.86 49.46 58.86 49.49 66.72 49.49"/><path class="cls-3" d="M117.18,67.75a5.27,5.27,0,0,0-3.49-1.54,1.18,1.18,0,0,0-.26,0,5.3,5.3,0,0,0-3.07,1l-1.48,1.07L97.11,76.78,92,80.46a7.16,7.16,0,0,1-2.6,1.13H86.51l-.41-.1L70.6,77.15a2.73,2.73,0,0,1-.79-.37,2.79,2.79,0,0,1-1.23-1.93l-.16-1.09a2.8,2.8,0,0,1,2.77-3.19h.26l6.63.62,2.64.25c.18,0,.35,0,.53,0a5.32,5.32,0,0,0,1.88-.34,5.54,5.54,0,0,0,3.61-5.81,2.2,2.2,0,0,0-1.82-1.93l-1.79-.31-5-.88L65.58,60a13.08,13.08,0,0,0-10.92,3.12l-4.46,4-4.81,4.29-12,10.72a3.54,3.54,0,0,0-.48,4.77l8.36,11.21a3.53,3.53,0,0,0,5.1.61l8.1-6.7a7.9,7.9,0,0,1,5-1.78,7.18,7.18,0,0,1,2,.26l23.44,6.09a6.67,6.67,0,0,0,1.77.23,6.92,6.92,0,0,0,4.2-1.41l18.12-13.82L113.69,78l2.9-2.21A5.3,5.3,0,0,0,117.18,67.75Z"/></g></g></svg>